HIERARCHY
ROOT Hips
{
    OFFSET   0.000000   0.000000   0.000000
    CHANNELS 6 Xposition Yposition Zposition Zrotation Xrotation Yrotation
    JOINT Chest
    {
        OFFSET   0.000000   8.007240   0.000000
        CHANNELS 3 Zrotation Xrotation Yrotation
        JOINT Chest2
        {
            OFFSET   0.000000  22.077100   0.000000
            CHANNELS 3 Zrotation Xrotation Yrotation
            JOINT Neck
            {
                OFFSET   0.000000  23.254800   0.000000
                CHANNELS 3 Zrotation Xrotation Yrotation
                JOINT Head
                {
                    OFFSET   0.000000  14.370000   1.956600
                    CHANNELS 3 Zrotation Xrotation Yrotation
                    End Site
                    {
                        OFFSET   0.000000  19.566000   0.000000
                    }
                }
            }
            JOINT LeftCollar
            {
                OFFSET   3.911900  19.017000  -0.467064
                CHANNELS 3 Zrotation Xrotation Yrotation
                JOINT LeftShoulder
                {
                    OFFSET  10.383700   0.000000   0.000000
                    CHANNELS 3 Zrotation Xrotation Yrotation
                    JOINT LeftElbow
                    {
                        OFFSET  26.662100   0.001476   0.000517
                        CHANNELS 3 Zrotation Xrotation Yrotation
                        JOINT LeftWrist
                        {
                            OFFSET  28.869000  -0.000025  -0.000106
                            CHANNELS 3 Zrotation Xrotation Yrotation
                            JOINT LeftFinger0
                            {
                                OFFSET   2.044660  -2.323460   3.252850
                                CHANNELS 3 Zrotation Xrotation Yrotation
                                JOINT LeftFinger01
                                {
                                    OFFSET   3.088130   0.000000   0.000000
                                    CHANNELS 3 Zrotation Xrotation Yrotation
                                    JOINT LeftFinger02
                                    {
                                        OFFSET   2.639460   0.000000   0.000000
                                        CHANNELS 3 Zrotation Xrotation Yrotation
                                        End Site
                                        {
                                            OFFSET   2.582190   0.000000   0.000000
                                        }
                                    }
                                }
                            }
                            JOINT LeftFinger1
                            {
                                OFFSET   8.364480   0.000000   3.252850
                                CHANNELS 3 Zrotation Xrotation Yrotation
                                JOINT LeftFinger11
                                {
                                    OFFSET   4.646930   0.000000   0.000000
                                    CHANNELS 3 Zrotation Xrotation Yrotation
                                    JOINT LeftFinger12
                                    {
                                        OFFSET   2.323460   0.000000   0.000000
                                        CHANNELS 3 Zrotation Xrotation Yrotation
                                        End Site
                                        {
                                            OFFSET   2.273050   0.000000   0.000000
                                        }
                                    }
                                }
                            }
                            JOINT LeftFinger2
                            {
                                OFFSET   8.364490   0.000015   1.078090
                                CHANNELS 3 Zrotation Xrotation Yrotation
                                JOINT LeftFinger21
                                {
                                    OFFSET   5.111620   0.000000   0.000000
                                    CHANNELS 3 Zrotation Xrotation Yrotation
                                    JOINT LeftFinger22
                                    {
                                        OFFSET   2.788160   0.000016   0.000000
                                        CHANNELS 3 Zrotation Xrotation Yrotation
                                        End Site
                                        {
                                            OFFSET   2.727660   0.000000   0.000000
                                        }
                                    }
                                }
                            }
                            JOINT LeftFinger3
                            {
                                OFFSET   7.899780   0.000017  -1.078090
                                CHANNELS 3 Zrotation Xrotation Yrotation
                                JOINT LeftFinger31
                                {
                                    OFFSET   4.646930   0.000000   0.000000
                                    CHANNELS 3 Zrotation Xrotation Yrotation
                                    JOINT LeftFinger32
                                    {
                                        OFFSET   2.323470   0.000000   0.000000
                                        CHANNELS 3 Zrotation Xrotation Yrotation
                                        End Site
                                        {
                                            OFFSET   2.273050   0.000000   0.000000
                                        }
                                    }
                                }
                            }
                            JOINT LeftFinger4
                            {
                                OFFSET   7.435090   0.000000  -3.252850
                                CHANNELS 3 Zrotation Xrotation Yrotation
                                JOINT LeftFinger41
                                {
                                    OFFSET   3.717550   0.000000   0.000000
                                    CHANNELS 3 Zrotation Xrotation Yrotation
                                    JOINT LeftFinger42
                                    {
                                        OFFSET   1.858770   0.000000   0.000000
                                        CHANNELS 3 Zrotation Xrotation Yrotation
                                        End Site
                                        {
                                            OFFSET   1.818440   0.000000   0.000000
                                        }
                                    }
                                }
                            }
                        }
                    }
                }
            }
            JOINT RightCollar
            {
                OFFSET  -3.911900  19.017000  -0.467063
                CHANNELS 3 Zrotation Xrotation Yrotation
                JOINT RightShoulder
                {
                    OFFSET -10.383700   0.000019   0.000000
                    CHANNELS 3 Zrotation Xrotation Yrotation
                    JOINT RightElbow
                    {
                        OFFSET -26.662100   0.001175   0.000102
                        CHANNELS 3 Zrotation Xrotation Yrotation
                        JOINT RightWrist
                        {
                            OFFSET -28.869000   0.000016  -0.000079
                            CHANNELS 3 Zrotation Xrotation Yrotation
                            JOINT RightFinger0
                            {
                                OFFSET  -2.044660  -2.323490   3.252850
                                CHANNELS 3 Zrotation Xrotation Yrotation
                                JOINT RightFinger01
                                {
                                    OFFSET  -3.088140   0.000000   0.000000
                                    CHANNELS 3 Zrotation Xrotation Yrotation
                                    JOINT RightFinger02
                                    {
                                        OFFSET  -2.639460   0.000000   0.000000
                                        CHANNELS 3 Zrotation Xrotation Yrotation
                                        End Site
                                        {
                                            OFFSET  -2.582190   0.000000   0.000000
                                        }
                                    }
                                }
                            }
                            JOINT RightFinger1
                            {
                                OFFSET  -8.364480   0.000000   3.252850
                                CHANNELS 3 Zrotation Xrotation Yrotation
                                JOINT RightFinger11
                                {
                                    OFFSET  -4.646930   0.000000   0.000000
                                    CHANNELS 3 Zrotation Xrotation Yrotation
                                    JOINT RightFinger12
                                    {
                                        OFFSET  -2.323470   0.000000   0.000000
                                        CHANNELS 3 Zrotation Xrotation Yrotation
                                        End Site
                                        {
                                            OFFSET  -2.273050   0.000000   0.000000
                                        }
                                    }
                                }
                            }
                            JOINT RightFinger2
                            {
                                OFFSET  -8.364480   0.000000   1.078090
                                CHANNELS 3 Zrotation Xrotation Yrotation
                                JOINT RightFinger21
                                {
                                    OFFSET  -5.111620   0.000000   0.000000
                                    CHANNELS 3 Zrotation Xrotation Yrotation
                                    JOINT RightFinger22
                                    {
                                        OFFSET  -2.788160   0.000000   0.000000
                                        CHANNELS 3 Zrotation Xrotation Yrotation
                                        End Site
                                        {
                                            OFFSET  -2.727660   0.000000   0.000000
                                        }
                                    }
                                }
                            }
                            JOINT RightFinger3
                            {
                                OFFSET  -7.899780   0.000000  -1.078090
                                CHANNELS 3 Zrotation Xrotation Yrotation
                                JOINT RightFinger31
                                {
                                    OFFSET  -4.646930   0.000000   0.000000
                                    CHANNELS 3 Zrotation Xrotation Yrotation
                                    JOINT RightFinger32
                                    {
                                        OFFSET  -2.323470   0.000000   0.000000
                                        CHANNELS 3 Zrotation Xrotation Yrotation
                                        End Site
                                        {
                                            OFFSET  -2.273050   0.000000   0.000000
                                        }
                                    }
                                }
                            }
                            JOINT RightFinger4
                            {
                                OFFSET  -7.435090   0.000000  -3.252850
                                CHANNELS 3 Zrotation Xrotation Yrotation
                                JOINT RightFinger41
                                {
                                    OFFSET  -3.717550   0.000000   0.000000
                                    CHANNELS 3 Zrotation Xrotation Yrotation
                                    JOINT RightFinger42
                                    {
                                        OFFSET  -1.858770   0.000000   0.000000
                                        CHANNELS 3 Zrotation Xrotation Yrotation
                                        End Site
                                        {
                                            OFFSET  -1.818440   0.000000   0.000000
                                        }
                                    }
                                }
                            }
                        }
                    }
                }
            }
        }
    }
    JOINT LeftHip
    {
        OFFSET   9.783040   0.000000   0.000000
        CHANNELS 3 Zrotation Xrotation Yrotation
        JOINT LeftKnee
        {
            OFFSET   0.000032 -41.789100  -0.002222
            CHANNELS 3 Zrotation Xrotation Yrotation
            JOINT LeftAnkle
            {
                OFFSET   0.000087 -41.133200  -0.000135
                CHANNELS 3 Zrotation Xrotation Yrotation
                JOINT LeftToe
                {
                    OFFSET   0.000000  -6.358960  14.674500
                    CHANNELS 3 Zrotation Xrotation Yrotation
                    End Site
                    {
                        OFFSET   0.000000   0.000000   3.913200
                    }
                }
            }
        }
    }
    JOINT RightHip
    {
        OFFSET  -9.783040   0.000000   0.000000
        CHANNELS 3 Zrotation Xrotation Yrotation
        JOINT RightKnee
        {
            OFFSET   0.000047 -41.789100  -0.000896
            CHANNELS 3 Zrotation Xrotation Yrotation
            JOINT RightAnkle
            {
                OFFSET  -0.000117 -41.133300  -0.000248
                CHANNELS 3 Zrotation Xrotation Yrotation
                JOINT RightToe
                {
                    OFFSET   0.000000  -6.358970  14.674500
                    CHANNELS 3 Zrotation Xrotation Yrotation
                    End Site
                    {
                        OFFSET   0.000000   0.000000   3.913200
                    }
                }
            }
        }
    }
}
MOTION
Frames: 6
Frame Time:   0.016667
  2.999660  89.452500   0.624669  -1.831360  -8.105670   2.365220   0.767713   4.356070  -0.891681   1.610540   8.699200  -1.850040   0.951334  -0.066655  -0.009865   1.554570  -0.135063   6.391560  -4.474060   2.890680  -2.586750 -70.245700  15.694600  -3.078440  -3.095210  -6.808130 -14.901600   5.045910 -12.360700   8.185030  42.560300  33.400900 -64.094800 -26.590500   0.004231   0.009722  -8.295270  -0.002537  -0.005613 -32.022000   5.667410  -8.994150 -26.564000  -0.002152  -0.000214 -18.594800  -0.001410  -0.000737 -28.443700   1.713890  -3.161570 -35.946700   0.000093  -0.001584 -23.940500   0.001478  -0.002067 -28.428900  -0.961310   1.775310 -35.519500  -0.001594  -0.001823 -23.656000   0.000082  -0.003124 -33.379900  -1.111040   1.685660 -50.094300  -0.002488  -0.000902 -33.362800  -0.001010   0.011704   6.499960  -0.258154   9.276190  71.959000   7.258490   0.812764  -1.395630  -2.484460  10.662600 -10.807400 -11.898100  10.563900 -42.108700  28.983600  67.237500  17.752000  -0.008526   0.002187   3.876000  -0.000498   0.002625  31.129800   6.841850  11.169300  26.017800  -0.008059   0.001165  18.205500  -0.007337   0.000623  28.241300   2.378560   4.420550  34.482700   0.001765  -0.003400  22.965400  -0.005248  -0.002536  28.266700   0.655429   1.218050  34.129100   0.002324  -0.004077  22.730000  -0.005246  -0.003087  31.947800   0.731707   1.173820  47.930700  -0.006165  -0.004664  31.923300   0.008278  -0.003089   2.417570  12.018900   1.766290   0.681190   0.138500   6.739780  -3.873150  -4.134490   2.487350   0.000000   0.000000   0.000000   0.239008   9.152210  -3.858090   0.639279   3.450640  -8.749530  -1.122290  -4.138560  -0.371529   0.000000   0.000000   0.000000
  2.995970  89.452500   0.616433  -1.838050  -8.117100   2.348660   0.767492   4.364640  -0.890345   1.610120   8.716360  -1.847480   0.944513  -0.066632  -0.009845   1.547500  -0.135062   6.417850  -4.483380   2.868630  -2.573950 -70.261900  15.687100  -3.081880  -3.089380  -6.767530 -14.912300   5.048830 -12.351100   8.176510  42.561900  33.410400 -64.107900 -26.603700   0.004250   0.009725  -8.301850  -0.002538  -0.005619 -32.028100   5.667620  -8.980540 -26.568800  -0.002185  -0.000179 -18.598200  -0.001442  -0.000722 -28.444300   1.707770  -3.150140 -35.952300   0.000033  -0.001544 -23.944200   0.001417  -0.002067 -28.428400  -0.968422   1.788390 -35.526500  -0.001641  -0.001799 -23.660700   0.000032  -0.003094 -33.382000  -1.119300   1.698180 -50.097800  -0.002535  -0.000876 -33.365200  -0.001046   0.011712   6.493300  -0.275237   9.302970  71.957700   7.272150   0.815682  -1.399390  -2.473080  10.663700 -10.824500 -11.908100  10.558100 -42.112600  28.982300  67.236200  17.778500  -0.008532   0.002189   3.889280  -0.000497   0.002623  31.129900   6.841970  11.164000  26.017700  -0.008058   0.001153  18.207700  -0.007331   0.000624  28.241600   2.378110   4.420550  34.475700   0.001774  -0.003424  22.960800  -0.005246  -0.002549  28.266800   0.652418   1.212420  34.123100   0.002334  -0.004101  22.726000  -0.005244  -0.003102  31.948200   0.728355   1.168390  47.922500  -0.006159  -0.004677  31.923700   0.008273  -0.003098   2.422480  12.019100   1.762490   0.680310   0.164126   6.761040  -3.874520  -4.142720   2.485960  -0.000000   0.000000  -0.000000   0.240761   9.141890  -3.858090   0.655381   3.462930  -8.729090  -1.132240  -4.125780  -0.371268  -0.000000   0.000000   0.000000
  2.990130  89.452500   0.601588  -1.852560  -8.136640   2.315600   0.767341   4.380260  -0.888492   1.610020   8.747640  -1.844040   0.937692  -0.066474  -0.009794   1.540460  -0.135057   6.457930  -4.500730   2.833110  -2.554110 -70.292000  15.679500  -3.088720  -3.079360  -6.684290 -14.934400   5.051910 -12.331200   8.161560  42.566700  33.438800 -64.148200 -26.624100   0.004275   0.009730  -8.312030  -0.002539  -0.005625 -32.042100   5.667830  -8.966920 -26.580200  -0.002257  -0.000102 -18.606100  -0.001511  -0.000689 -28.445000   1.701660  -3.138710 -35.967400  -0.000101  -0.001459 -23.954300   0.001284  -0.002066 -28.427800  -0.978068   1.806100 -35.542600  -0.001744  -0.001747 -23.671400  -0.000078  -0.003028 -33.389200  -1.130620   1.714720 -50.109100  -0.002639  -0.000820 -33.372700  -0.001124   0.011730   6.482020  -0.303873   9.349720  71.951500   7.300450   0.825462  -1.408690  -2.452350  10.671900 -10.849800 -11.923500  10.548800 -42.116500  28.980900  67.234900  17.815300  -0.008548   0.002198   3.907660  -0.000491   0.002620  31.130100   6.842100  11.158700  26.017600  -0.008052   0.001129  18.212300  -0.007316   0.000625  28.242000   2.377670   4.420560  34.468800   0.001796  -0.003475  22.956200  -0.005243  -0.002583  28.266900   0.649407   1.206790  34.117100   0.002359  -0.004156  22.722000  -0.005239  -0.003141  31.948700   0.725003   1.162950  47.914300  -0.006143  -0.004714  31.924000   0.008257  -0.003121   2.432210  12.020400   1.758700   0.681448   0.189741   6.800780  -3.876160  -4.150950   2.480870  -0.000000   0.000000   0.000000   0.244370   9.075180  -3.858130   0.679583   3.534880  -8.692600  -1.148370  -4.104660  -0.369474   0.000000   0.000000   0.000000
  2.985770  89.452600   0.587452  -1.871880  -8.152270   2.278330   0.768659   4.394900  -0.887756   1.612970   8.776890  -1.843050   0.941191  -0.064222  -0.009715   1.546240  -0.130553   6.483110  -4.518030   2.808430  -2.538770 -70.322700  15.681100  -3.098750  -3.069820  -6.587780 -14.954700   5.050810 -12.309800   8.151250  42.575000  33.482900 -64.225400 -26.639800   0.004279   0.009740  -8.319870  -0.002538  -0.005624 -32.062600   5.670350  -8.968090 -26.597400  -0.002362   0.000009 -18.618100  -0.001605  -0.000645 -28.444900   1.702050  -3.139340 -35.994700  -0.000293  -0.001343 -23.972500   0.001097  -0.002062 -28.427800  -0.981093   1.811520 -35.566500  -0.001888  -0.001676 -23.687300  -0.000234  -0.002935 -33.403200  -1.134570   1.719400 -50.130300  -0.002785  -0.000740 -33.386800  -0.001234   0.011757   6.473520  -0.326930   9.390340  71.937200   7.337120   0.845047  -1.422150  -2.433230  10.688100 -10.864000 -11.934500  10.540800 -42.125400  28.994200  67.251200  17.827300  -0.008568   0.002216   3.913640  -0.000476   0.002625  31.140500   6.845830  11.160000  26.026200  -0.008041   0.001101  18.219500  -0.007295   0.000618  28.241800   2.380220   4.423460  34.483900   0.001832  -0.003544  22.966200  -0.005237  -0.002636  28.266800   0.651218   1.210060  34.128800   0.002402  -0.004233  22.729900  -0.005233  -0.003200  31.948500   0.727176   1.165990  47.923500  -0.006117  -0.004776  31.923900   0.008227  -0.003159   2.442810  12.041200   1.765640   0.688167   0.167893   6.837590  -3.874740  -4.136800   2.473440  -0.000000   0.000000   0.000000   0.250979   8.859880  -3.864450   0.694427   3.761160  -8.657960  -1.160730  -4.087750  -0.358012   0.000000   0.000000   0.000000
  2.982350  89.452600   0.571794  -1.893830  -8.170460   2.233170   0.771473   4.412530  -0.887549   1.618860   8.812120  -1.843030   0.953526  -0.055644  -0.009622   1.566500  -0.112979   6.501750  -4.538250   2.782910  -2.530440 -70.358200  15.692800  -3.105550  -3.061650  -6.467330 -14.993600   5.047060 -12.278300   8.133660  42.595100  33.536100 -64.329300 -26.648200   0.004283   0.009747  -8.324110  -0.002536  -0.005620 -32.084500   5.683230  -8.976180 -26.616300  -0.002475   0.000126 -18.631400  -0.001706  -0.000597 -28.444600   1.704780  -3.143730 -36.023400  -0.000498  -0.001226 -23.991600   0.000897  -0.002058 -28.428000  -0.981585   1.812310 -35.592400  -0.002043  -0.001606 -23.704500  -0.000399  -0.002835 -33.420300  -1.135460   1.720070 -50.156200  -0.002941  -0.000655 -33.404000  -0.001351   0.011788   6.462990  -0.350590   9.435950  71.919700   7.375650   0.867672  -1.439710  -2.409620  10.724900 -10.874000 -11.940300  10.536100 -42.132900  29.010900  67.264100  17.833600  -0.008595   0.002238   3.916780  -0.000454   0.002632  31.149800   6.852250  11.166200  26.034900  -0.008024   0.001067  18.224400  -0.007267   0.000608  28.241000   2.386660   4.433350  34.499000   0.001877  -0.003627  22.976300  -0.005231  -0.002702  28.266500   0.658412   1.223380  34.140600   0.002456  -0.004327  22.737700  -0.005229  -0.003274  31.947600   0.735260   1.178790  47.932800  -0.006085  -0.004850  31.923300   0.008190  -0.003207   2.452360  12.076400   1.777300   0.698165   0.133974   6.887600  -3.874270  -4.114360   2.457590  -0.000000   0.000000   0.000000   0.256689   8.700900  -3.877300   0.699843   3.927990  -8.621250  -1.169800  -4.071900  -0.332506   0.000000   0.000000  -0.000000
  2.980950  89.452700   0.554464  -1.914480  -8.193570   2.181940   0.775670   4.434760  -0.890024   1.627870   8.856490  -1.848610   0.976073  -0.039552  -0.009533   1.603520  -0.080553   6.512430  -4.563200   2.751770  -2.530710 -70.400800  15.732000  -3.096820  -3.054160  -6.322790 -15.065800   5.037480 -12.232800   8.100580  42.644300  33.606300 -64.458300 -26.621500   0.004319   0.009739  -8.310710  -0.002538  -0.005610 -32.105100   5.714440  -9.014020 -26.635600  -0.002579   0.000234 -18.644900  -0.001804  -0.000552 -28.442600   1.723190  -3.177210 -36.044400  -0.000686  -0.001141 -24.005600   0.000707  -0.002055 -28.429000  -0.969133   1.789200 -35.617300  -0.002187  -0.001554 -23.721100  -0.000555  -0.002742 -33.442000  -1.121430   1.697920 -50.188300  -0.003087  -0.000575 -33.425400  -0.001461   0.011822   6.446150  -0.376825   9.489650  71.902700   7.407020   0.889952  -1.459040  -2.379370  10.790100 -10.878200 -11.929700  10.540000 -42.158800  29.023400  67.251800  17.844700  -0.008632   0.002260   3.922350  -0.000428   0.002637  31.137100   6.859350  11.184600  26.026300  -0.008000   0.001025  18.218400  -0.007232   0.000602  28.236100   2.397980   4.455040  34.466900   0.001929  -0.003727  22.955000  -0.005230  -0.002774  28.265800   0.674283   1.253130  34.110200   0.002513  -0.004433  22.717400  -0.005228  -0.003352  31.925900   0.752544   1.207740  47.901300  -0.006051  -0.004927  31.902000   0.008159  -0.003263   2.457600  12.109500   1.786480   0.711558   0.107509   6.961180  -3.879540  -4.095380   2.426240   0.000000   0.000000   0.000000   0.265876   8.839700  -3.893820   0.716169   3.804660  -8.586240  -1.172740  -4.058430  -0.292144   0.000000   0.000000  -0.000000
